<?xml version="1.0" encoding="UTF-8"?>
<svg id="_レイヤー_1" data-name="レイヤー 1" xmlns="http://www.w3.org/2000/svg" viewBox="0 0 1000 200">
  <defs>
    <style>
      .cls-1 {
        fill: #fff;
      }

      .cls-2 {
        fill: #3d3abf;
      }

      .cls-3 {
        fill: #6a67f5;
      }
    </style>
  </defs>
  <g>
    <rect class="cls-3" x=".5" y="7.5" width="196.33" height="185" rx="29.5" ry="29.5"/>
    <path class="cls-2" d="M167.33,8c15.99,0,29,13.01,29,29v126c0,15.99-13.01,29-29,29H30c-15.99,0-29-13.01-29-29V37C1,21.01,14.01,8,30,8h137.33M167.33,7H30C13.43,7,0,20.43,0,37v126C0,179.57,13.43,193,30,193h137.33c16.57,0,30-13.43,30-30V37c0-16.57-13.43-30-30-30h0Z"/>
  </g>
  <rect class="cls-1" x="40.17" y="38.67" width="25" height="130" rx="12.5" ry="12.5"/>
  <rect class="cls-1" x="86.17" y="88.67" width="25" height="80" rx="12.5" ry="12.5"/>
  <rect class="cls-1" x="132.17" y="58.67" width="25" height="110" rx="12.5" ry="12.5"/>
  <g>
    <path class="cls-1" d="M266.26,172.5c-5.75,0-11.53-1.54-17.32-4.63-5.79-3.09-10.98-7.66-15.55-13.73l12.06-21.11c3.07,3.89,6.52,7.04,10.34,9.44,3.82,2.4,7.47,3.6,10.93,3.6,3.94,0,6.84-1,8.69-3,1.85-2,2.78-4.72,2.78-8.15,0-2.51-.51-4.55-1.54-6.09-1.03-1.54-2.46-2.94-4.31-4.2-1.85-1.26-4.04-2.63-6.56-4.12l-11.23-6.86c-3.07-1.83-5.97-4.29-8.69-7.38-2.72-3.09-4.93-6.92-6.62-11.5-1.7-4.57-2.54-9.95-2.54-16.13,0-7.21,1.36-13.73,4.08-19.56,2.72-5.83,6.48-10.47,11.29-13.9,4.81-3.43,10.32-5.15,16.55-5.15,5.12,0,10.21,1.4,15.25,4.2,5.04,2.8,9.5,7.01,13.36,12.61l-10.52,19.22c-2.92-3.2-5.79-5.63-8.63-7.29-2.84-1.66-5.99-2.49-9.46-2.49-3.23,0-5.77.92-7.63,2.75-1.85,1.83-2.78,4.41-2.78,7.72,0,2.4.57,4.41,1.71,6.01,1.14,1.6,2.7,3.03,4.67,4.29,1.97,1.26,4.26,2.63,6.86,4.12l10.99,6.35c3.62,2.06,6.74,4.69,9.34,7.89,2.6,3.2,4.59,7.01,5.97,11.41,1.38,4.41,2.07,9.64,2.07,15.7,0,7.09-1.32,13.67-3.96,19.73-2.64,6.06-6.46,10.96-11.47,14.67-5.01,3.72-11.05,5.58-18.15,5.58Z"/>
    <path class="cls-1" d="M342.04,172.5c-5.67,0-11.03-2.03-16.08-6.09-5.04-4.06-9.12-9.92-12.24-17.59-3.11-7.66-4.67-16.87-4.67-27.63s1.56-19.93,4.67-27.54c3.11-7.61,7.19-13.44,12.24-17.5,5.04-4.06,10.4-6.09,16.08-6.09,4.26,0,8.35,1.14,12.29,3.43,3.94,2.29,7.45,5.64,10.52,10.04,3.07,4.4,5.52,9.75,7.33,16.04,1.81,6.29,2.72,13.5,2.72,21.62,0,10.75-1.56,19.96-4.67,27.63-3.11,7.67-7.17,13.53-12.18,17.59-5.01,4.06-10.34,6.09-16.02,6.09ZM342.04,147.79c2.6,0,4.75-1.09,6.44-3.26,1.69-2.17,2.93-5.26,3.72-9.27.79-4,1.18-8.69,1.18-14.07s-.4-10.04-1.18-13.99c-.79-3.95-2.03-7.01-3.72-9.18-1.7-2.17-3.84-3.26-6.44-3.26s-4.75,1.09-6.44,3.26c-1.7,2.17-2.96,5.23-3.78,9.18s-1.24,8.61-1.24,13.99.41,10.07,1.24,14.07c.83,4.01,2.09,7.09,3.78,9.27,1.69,2.17,3.84,3.26,6.44,3.26Z"/>
    <path class="cls-1" d="M407.29,172.5c-4.81,0-8.61-1.43-11.41-4.29-2.8-2.86-4.79-6.86-5.97-12.01s-1.77-11.09-1.77-17.85V32.99h21.04v106.39c0,3.2.41,5.41,1.24,6.61s1.64,1.8,2.42,1.8c.39,0,.75-.03,1.06-.09.31-.06.75-.14,1.3-.26l2.48,22.48c-1.1.69-2.52,1.29-4.26,1.8s-3.78.77-6.15.77Z"/>
    <path class="cls-1" d="M437.9,58.9c-3.55,0-6.38-1.43-8.51-4.29-2.13-2.86-3.19-6.69-3.19-11.5s1.06-8.46,3.19-11.33c2.13-2.86,4.97-4.29,8.51-4.29s6.28,1.43,8.45,4.29c2.17,2.86,3.25,6.64,3.25,11.33s-1.08,8.64-3.25,11.5c-2.17,2.86-4.98,4.29-8.45,4.29ZM427.38,170.1v-97.64h21.04v97.64h-21.04Z"/>
    <path class="cls-1" d="M491.81,172.5c-5.6,0-10.15-1.63-13.65-4.89-3.51-3.26-6.07-7.78-7.68-13.56-1.62-5.78-2.42-12.5-2.42-20.16v-37.58h-9.1v-22.65l10.4-1.2,2.36-25.91h17.38v25.91h15.84v23.85h-15.84v37.24c0,5.38.81,9.24,2.42,11.58,1.61,2.35,3.64,3.52,6.09,3.52,1.1,0,2.21-.2,3.31-.6,1.1-.4,2.05-.83,2.84-1.29l3.31,22.14c-1.73.8-3.84,1.6-6.32,2.4-2.48.8-5.46,1.2-8.93,1.2Z"/>
    <path class="cls-1" d="M543.71,172.5c-5.67,0-11.03-2.03-16.08-6.09-5.04-4.06-9.12-9.92-12.24-17.59-3.11-7.66-4.67-16.87-4.67-27.63s1.56-19.93,4.67-27.54c3.11-7.61,7.19-13.44,12.24-17.5,5.04-4.06,10.4-6.09,16.08-6.09,4.26,0,8.35,1.14,12.29,3.43,3.94,2.29,7.45,5.64,10.52,10.04,3.07,4.4,5.52,9.75,7.33,16.04,1.81,6.29,2.72,13.5,2.72,21.62,0,10.75-1.56,19.96-4.67,27.63-3.11,7.67-7.17,13.53-12.18,17.59-5.01,4.06-10.34,6.09-16.02,6.09ZM543.71,147.79c2.6,0,4.75-1.09,6.44-3.26,1.69-2.17,2.94-5.26,3.72-9.27.79-4,1.18-8.69,1.18-14.07s-.39-10.04-1.18-13.99c-.79-3.95-2.03-7.01-3.72-9.18-1.7-2.17-3.84-3.26-6.44-3.26s-4.75,1.09-6.44,3.26c-1.7,2.17-2.96,5.23-3.78,9.18s-1.24,8.61-1.24,13.99.41,10.07,1.24,14.07c.83,4.01,2.09,7.09,3.78,9.27,1.69,2.17,3.84,3.26,6.44,3.26Z"/>
    <path class="cls-1" d="M589.81,170.1v-97.64h17.14l1.54,12.18h.35c2.76-4,5.89-7.43,9.4-10.3,3.5-2.86,7.55-4.29,12.12-4.29,7.33,0,12.65,3.55,15.96,10.64,3.31,7.09,4.97,16.76,4.97,29v60.4h-21.04v-56.63c0-6.75-.63-11.33-1.89-13.73-1.26-2.4-3.23-3.6-5.91-3.6-2.36,0-4.37.75-6.03,2.23-1.66,1.49-3.51,3.66-5.56,6.52v65.21h-21.04Z"/>
    <path class="cls-1" d="M733.56,172.5c-5.6,0-10.88-1.37-15.84-4.12-4.96-2.75-9.36-6.89-13.18-12.44-3.82-5.55-6.82-12.41-8.98-20.59-2.17-8.18-3.25-17.64-3.25-28.4s1.12-20.1,3.37-28.4c2.25-8.29,5.32-15.3,9.22-21.02,3.9-5.72,8.37-10.07,13.42-13.04,5.04-2.97,10.36-4.46,15.96-4.46s10.89,1.66,15.43,4.98c4.53,3.32,8.29,7.21,11.29,11.67l-10.99,19.56c-2.21-2.97-4.53-5.38-6.98-7.21-2.44-1.83-5.24-2.75-8.39-2.75-3.78,0-7.25,1.57-10.4,4.72-3.15,3.15-5.66,7.67-7.51,13.56-1.85,5.89-2.78,13.01-2.78,21.36s.85,15.7,2.54,21.71c1.69,6.01,4.08,10.58,7.15,13.73,3.07,3.15,6.66,4.72,10.76,4.72,3.55,0,6.72-1.14,9.52-3.43,2.8-2.29,5.22-5.03,7.27-8.24l11.11,19.22c-3.71,6.29-7.98,11.01-12.83,14.16-4.85,3.14-10.15,4.72-15.9,4.72Z"/>
    <path class="cls-1" d="M802.71,172.5c-5.67,0-11.03-2.03-16.08-6.09-5.04-4.06-9.12-9.92-12.24-17.59-3.11-7.66-4.67-16.87-4.67-27.63s1.56-19.93,4.67-27.54c3.11-7.61,7.19-13.44,12.24-17.5,5.04-4.06,10.4-6.09,16.08-6.09,4.26,0,8.35,1.14,12.29,3.43,3.94,2.29,7.45,5.64,10.52,10.04,3.07,4.4,5.52,9.75,7.33,16.04,1.81,6.29,2.72,13.5,2.72,21.62,0,10.75-1.56,19.96-4.67,27.63-3.11,7.67-7.17,13.53-12.18,17.59-5.01,4.06-10.34,6.09-16.02,6.09ZM802.71,147.79c2.6,0,4.75-1.09,6.44-3.26,1.69-2.17,2.94-5.26,3.72-9.27.79-4,1.18-8.69,1.18-14.07s-.39-10.04-1.18-13.99c-.79-3.95-2.03-7.01-3.72-9.18-1.7-2.17-3.84-3.26-6.44-3.26s-4.75,1.09-6.44,3.26c-1.7,2.17-2.96,5.23-3.78,9.18s-1.24,8.61-1.24,13.99.41,10.07,1.24,14.07c.83,4.01,2.09,7.09,3.78,9.27,1.69,2.17,3.84,3.26,6.44,3.26Z"/>
    <path class="cls-1" d="M848.81,170.1v-97.64h17.14l1.54,16.99h.35c2.52-6.52,5.5-11.38,8.93-14.59,3.43-3.2,6.84-4.8,10.23-4.8,2.05,0,3.68.2,4.91.6,1.22.4,2.31.89,3.25,1.46l-3.43,26.25c-1.26-.46-2.44-.83-3.55-1.12-1.1-.28-2.41-.43-3.9-.43-2.44,0-5.02,1.32-7.74,3.95-2.72,2.63-4.95,7.15-6.68,13.56v55.77h-21.04Z"/>
    <path class="cls-1" d="M931.92,172.5c-6.46,0-12.28-2.03-17.44-6.09-5.16-4.06-9.26-9.92-12.29-17.59-3.03-7.66-4.55-16.87-4.55-27.63,0-7.89.89-14.99,2.66-21.28,1.77-6.29,4.18-11.67,7.21-16.13,3.03-4.46,6.46-7.86,10.28-10.21,3.82-2.34,7.74-3.52,11.76-3.52,6.46,0,11.82,2.06,16.08,6.18,4.26,4.12,7.45,9.72,9.58,16.82,2.13,7.09,3.19,15.1,3.19,24.02,0,2.75-.1,5.32-.3,7.72-.2,2.4-.41,4.23-.65,5.49h-39.48c.63,4.46,1.73,8.06,3.31,10.81,1.58,2.75,3.51,4.78,5.79,6.09,2.28,1.32,4.85,1.97,7.68,1.97,2.44,0,4.81-.51,7.09-1.54,2.28-1.03,4.65-2.57,7.09-4.63l6.97,18.36c-3.47,3.55-7.35,6.29-11.64,8.24-4.3,1.94-8.41,2.92-12.35,2.92ZM917.61,110.21h22.93c0-4.8-.81-8.81-2.42-12.01-1.62-3.2-4.36-4.8-8.22-4.8-1.89,0-3.69.6-5.38,1.8-1.7,1.2-3.15,3.03-4.37,5.49-1.22,2.46-2.07,5.64-2.54,9.52Z"/>
  </g>
</svg>