<?xml version="1.0" encoding="UTF-8" standalone="no"?>
<!DOCTYPE svg PUBLIC "-//W3C//DTD SVG 1.1//EN" "http://www.w3.org/Graphics/SVG/1.1/DTD/svg11.dtd">
<svg width="100%" height="100%" viewBox="0 0 10667 2134" version="1.1" xmlns="http://www.w3.org/2000/svg" xmlns:xlink="http://www.w3.org/1999/xlink" xml:space="preserve" xmlns:serif="http://www.serif.com/" style="fill-rule:evenodd;clip-rule:evenodd;stroke-linejoin:round;stroke-miterlimit:2;">
    <g id="ページ1" transform="matrix(4.166667,0,0,4.166667,0,0)">
        <rect x="0" y="0" width="2560" height="512" style="fill:none;"/>
        <clipPath id="_clip1">
            <rect x="0" y="0" width="2560" height="512"/>
        </clipPath>
        <g clip-path="url(#_clip1)">
            <g id="レイヤー-1" serif:id="レイヤー 1">
                <g transform="matrix(0.711111,0,0,2.014051,-2269.155556,-267.868804)">
                    <path d="M3791.469,133C3823.17,133 3853.574,137.446 3875.99,145.361C3898.407,153.276 3911,164.01 3911,175.203L3911,345.011C3911,356.204 3898.407,366.938 3875.99,374.853C3853.574,382.768 3823.17,387.214 3791.469,387.214L3310.531,387.214C3278.83,387.214 3248.426,382.768 3226.01,374.853C3203.593,366.938 3191,356.204 3191,345.011L3191,175.203C3191,164.01 3203.593,153.276 3226.01,145.361C3248.426,137.446 3278.83,133 3310.531,133L3791.469,133Z" style="fill:rgb(15,61,102);"/>
                </g>
                <g transform="matrix(1,0,0,1,189,277)">
                    <path d="M0,140L-72,140L-72,8C-72,3.582 -68.418,0 -64,0L-8,0C-3.582,0 0,3.582 0,8L0,140Z" style="fill:rgb(0,229,255);fill-rule:nonzero;"/>
                </g>
                <g transform="matrix(1,0,0,1,292,197)">
                    <path d="M0,220L-72,220L-72,10C-72,4.477 -67.523,0 -62,0L-10,0C-4.477,0 0,4.477 0,10L0,220Z" style="fill:rgb(0,229,255);fill-rule:nonzero;"/>
                </g>
                <g transform="matrix(1,0,0,1,395,95)">
                    <path d="M0,320L-72,320L-72,13C-72,5.82 -66.18,0 -59,0L-13,0C-5.82,0 0,5.82 0,13L0,320Z" style="fill:rgb(0,229,255);fill-rule:nonzero;"/>
                </g>
                <g transform="matrix(0.24,0,0,0.24,430.103608,70.627833)">
                    <g transform="matrix(0.71428,0,0,1,161.69641,0)">
                        <g transform="matrix(1864.53125,0,0,1864.53125,11651.048261,1434.884027)">
                        </g>
                        <text x="565.926px" y="1434.884px" style="font-family:'Helvetica-Bold', 'Helvetica';font-weight:700;font-size:1864.531px;fill:rgb(15,23,42);">S<tspan x="1809.665px 2948.706px 3466.843px 3984.981px 4605.995px 5745.036px 6884.077px 7402.716px 8749.332px 9888.373px 10614.085px " y="1434.884px 1434.884px 1434.884px 1434.884px 1434.884px 1434.884px 1434.884px 1434.884px 1434.884px 1434.884px 1434.884px ">oliton Core</tspan></text>
                    </g>
                </g>
            </g>
        </g>
    </g>
</svg>
